<svg width="32" height="32" viewBox="0 0 32 32" fill="none" xmlns="http://www.w3.org/2000/svg">
<circle cx="16" cy="16" r="16" fill="#FFCC00"/>
<path d="M22.737 9.27122C22.455 9.1338 22.1448 9.04643 21.8242 9.01411C21.5036 8.98178 21.1789 9.00514 20.8687 9.08284C20.5584 9.16054 20.2686 9.29106 20.0158 9.46694C19.7631 9.64283 19.5524 9.86064 19.3957 10.1079L14.8345 17.3035L12.2241 15.0151C11.9974 14.8094 11.7263 14.6454 11.4266 14.5325C11.1268 14.4196 10.8044 14.3602 10.4782 14.3577C10.152 14.3552 9.82848 14.4097 9.52654 14.518C9.2246 14.6263 8.95028 14.7862 8.7196 14.9884C8.48892 15.1907 8.30649 15.4311 8.18296 15.6958C8.05942 15.9605 7.99726 16.2441 8.00009 16.5301C8.00293 16.816 8.0707 17.0986 8.19947 17.3614C8.32823 17.6242 8.5154 17.8618 8.75005 18.0605L13.6638 22.3679C14.1282 22.776 14.7547 23 15.4008 23L15.7411 22.9785C16.1177 22.9323 16.4769 22.8101 16.7904 22.6216C17.104 22.433 17.3634 22.1833 17.5481 21.8919L23.6903 12.2003C23.8471 11.9531 23.9469 11.6812 23.9838 11.4002C24.0208 11.1193 23.9942 10.8347 23.9057 10.5627C23.8172 10.2907 23.6684 10.0366 23.4679 9.81504C23.2674 9.59346 23.019 9.40866 22.737 9.27122Z" fill="white"/>
</svg>
