<svg width="32" height="32" viewBox="0 0 32 32" fill="none" xmlns="http://www.w3.org/2000/svg">
<circle cx="16" cy="16" r="16" fill="#FFCC00"/>
<path d="M10 10.45V17.2H14.382C14.682 17.2 14.833 17.2 14.954 17.2675C15.074 17.3341 15.142 17.4556 15.276 17.6977L15.724 18.5023C15.858 18.7453 15.925 18.8659 16.046 18.9325C16.167 19 16.317 19 16.618 19H21.5C21.736 19 21.854 19 21.927 18.9343C22 18.8686 22 18.7624 22 18.55V12.25C22 12.0376 22 11.9314 21.927 11.8657C21.854 11.8 21.736 11.8 21.5 11.8H16.618C16.318 11.8 16.167 11.8 16.046 11.7325C15.926 11.6659 15.858 11.5444 15.724 11.3023L15.276 10.4977C15.142 10.2547 15.075 10.1341 14.954 10.0675C14.833 10 14.683 10 14.382 10H10.5C10.264 10 10.146 10 10.073 10.0657C10 10.1314 10 10.2376 10 10.45Z" fill="white"/>
<path d="M10 17V9.5C10 9.264 10 9.146 10.073 9.073C10.146 9 10.264 9 10.5 9H14.382C14.682 9 14.833 9 14.954 9.075C15.074 9.149 15.142 9.284 15.276 9.553L15.724 10.447C15.858 10.717 15.925 10.851 16.046 10.925C16.167 11 16.317 11 16.618 11H21.5C21.736 11 21.854 11 21.927 11.073C22 11.146 22 11.264 22 11.5V18.5C22 18.736 22 18.854 21.927 18.927C21.854 19 21.736 19 21.5 19H16.618C16.318 19 16.167 19 16.046 18.925C15.926 18.851 15.858 18.716 15.724 18.447L15.276 17.553C15.142 17.283 15.075 17.149 14.954 17.075C14.833 17 14.683 17 14.382 17H10ZM10 17V23" stroke="white" stroke-width="2" stroke-linecap="round"/>
</svg>
