<svg width="32" height="32" viewBox="0 0 32 32" fill="none" xmlns="http://www.w3.org/2000/svg">
<circle cx="16" cy="16" r="16" fill="#FFCC00"/>
<path fill-rule="evenodd" clip-rule="evenodd" d="M16 16.3008C15.7348 16.3008 15.4804 16.1954 15.2929 16.0079C15.1054 15.8204 15 15.566 15 15.3008V10.3008C15 10.0356 15.1054 9.78121 15.2929 9.59367C15.4804 9.40614 15.7348 9.30078 16 9.30078C16.2652 9.30078 16.5196 9.40614 16.7071 9.59367C16.8946 9.78121 17 10.0356 17 10.3008V15.3008C17 15.566 16.8946 15.8204 16.7071 16.0079C16.5196 16.1954 16.2652 16.3008 16 16.3008Z" fill="white"/>
<path d="M14.9473 18.4573C14.9473 18.178 15.0582 17.9102 15.2557 17.7127C15.4532 17.5152 15.721 17.4043 16.0003 17.4043C16.2795 17.4043 16.5474 17.5152 16.7448 17.7127C16.9423 17.9102 17.0533 18.178 17.0533 18.4573C17.0533 18.7366 16.9423 19.0044 16.7448 19.2019C16.5474 19.3994 16.2795 19.5103 16.0003 19.5103C15.721 19.5103 15.4532 19.3994 15.2557 19.2019C15.0582 19.0044 14.9473 18.7366 14.9473 18.4573Z" fill="white"/>
<path fill-rule="evenodd" clip-rule="evenodd" d="M19.6075 7.14225L25.4835 17.8623C26.9955 20.6213 25.0105 24.0002 21.8765 24.0002H10.1245C6.99048 24.0002 5.00448 20.6202 6.51748 17.8612L12.3935 7.14125C13.9595 4.28625 18.0415 4.28625 19.6075 7.14125V7.14225ZM17.8035 8.14225C17.0215 6.71325 14.9795 6.71325 14.1975 8.14225L8.32048 18.8603C7.56348 20.2403 8.55648 21.9293 10.1235 21.9293H21.8755C23.4425 21.9293 24.4355 20.2392 23.6785 18.8592L17.8035 8.14225Z" fill="white"/>
</svg>
