<svg width="34" height="26" viewBox="0 0 34 26" fill="none" xmlns="http://www.w3.org/2000/svg">
<path d="M33.9941 5.52672H0.0554554H0V21.8943C0.83183 25.136 3.38278 24.9234 3.54914 24.9765C3.68224 25.019 21.4982 24.9942 30.3895 24.9765C32.7852 24.9765 33.7908 22.7092 33.9941 21.5755V5.52672Z" fill="#FFCC00"/>
<path d="M33.9941 4.57017H0.0554554C-0.299459 1.1266 2.2367 0.0885692 3.54914 0H30.5004C33.4729 0.510159 34.0681 3.25935 33.9941 4.57017Z" fill="#FFCC00"/>
<ellipse cx="4.54814" cy="2.60271" rx="1.22002" ry="1.16911" fill="white"/>
<g clip-path="url(#clip0_5304_355)">
<path d="M31 9.43359C31.2652 9.43359 31.5196 9.32824 31.7071 9.1407C31.8946 8.95316 32 8.69881 32 8.43359C32 8.16838 31.8946 7.91402 31.7071 7.72649C31.5196 7.53895 31.2652 7.43359 31 7.43359C30.7348 7.43359 30.4804 7.53895 30.2929 7.72649C30.1054 7.91402 30 8.16838 30 8.43359C30 8.69881 30.1054 8.95316 30.2929 9.1407C30.4804 9.32824 30.7348 9.43359 31 9.43359ZM31 6.68359C30.5359 6.68359 30.0908 6.86797 29.7626 7.19616C29.4344 7.52435 29.25 7.96946 29.25 8.43359C29.25 8.89772 29.4344 9.34284 29.7626 9.67103C30.0908 9.99922 30.5359 10.1836 31 10.1836C31.4641 10.1836 31.9092 9.99922 32.2374 9.67103C32.5656 9.34284 32.75 8.89772 32.75 8.43359C32.75 7.96946 32.5656 7.52435 32.2374 7.19616C31.9092 6.86797 31.4641 6.68359 31 6.68359ZM29.5 8.43359C29.5 8.23661 29.5388 8.04156 29.6142 7.85957C29.6896 7.67758 29.8001 7.51222 29.9393 7.37293C30.0786 7.23365 30.244 7.12316 30.426 7.04777C30.608 6.97239 30.803 6.93359 31 6.93359C31.197 6.93359 31.392 6.97239 31.574 7.04777C31.756 7.12316 31.9214 7.23365 32.0607 7.37293C32.1999 7.51222 32.3104 7.67758 32.3858 7.85957C32.4612 8.04156 32.5 8.23661 32.5 8.43359C32.5 8.83142 32.342 9.21295 32.0607 9.49425C31.7794 9.77556 31.3978 9.93359 31 9.93359C30.6022 9.93359 30.2206 9.77556 29.9393 9.49425C29.658 9.21295 29.5 8.83142 29.5 8.43359Z" fill="white"/>
</g>
<path d="M2.96 21.4336V9.43359H5.168V21.4336H2.96ZM7.085 13.4336H9.293V21.4336H7.085V13.4336ZM8.205 12.5136C7.885 12.5136 7.61567 12.4069 7.397 12.1936C7.17833 11.9803 7.069 11.7163 7.069 11.4016C7.069 11.0869 7.17833 10.8229 7.397 10.6096C7.61567 10.3963 7.88233 10.2896 8.197 10.2896C8.51167 10.2896 8.77567 10.3963 8.989 10.6096C9.20767 10.8229 9.317 11.0869 9.317 11.4016C9.317 11.7163 9.21033 11.9803 8.997 12.1936C8.789 12.4069 8.525 12.5136 8.205 12.5136ZM16.2011 21.4336H13.3451L10.4331 13.4336H12.7851L14.7691 18.8976L16.7531 13.4336H19.1131L16.2011 21.4336ZM23.4644 21.6416C22.7284 21.6416 22.0564 21.4523 21.4484 21.0736C20.8457 20.6949 20.363 20.1856 20.0004 19.5456C19.643 18.9056 19.4644 18.1989 19.4644 17.4256C19.4644 16.8443 19.5684 16.3003 19.7764 15.7936C19.9844 15.2816 20.2697 14.8336 20.6324 14.4496C21.0004 14.0603 21.427 13.7563 21.9124 13.5376C22.3977 13.3189 22.915 13.2096 23.4644 13.2096C24.099 13.2096 24.6777 13.3456 25.2004 13.6176C25.7284 13.8896 26.1737 14.2603 26.5364 14.7296C26.9044 15.1989 27.1657 15.7296 27.3204 16.3216C27.4804 16.9136 27.507 17.5296 27.4004 18.1696H21.8484C21.9177 18.4043 22.0244 18.6176 22.1684 18.8096C22.3177 18.9963 22.499 19.1456 22.7124 19.2576C22.931 19.3696 23.1817 19.4283 23.4644 19.4336C23.7417 19.4389 23.9977 19.3749 24.2324 19.2416C24.467 19.1083 24.667 18.9296 24.8324 18.7056L27.0884 19.2256C26.763 19.9349 26.2777 20.5163 25.6324 20.9696C24.987 21.4176 24.2644 21.6416 23.4644 21.6416ZM21.7684 16.5376H25.1684C25.099 16.2709 24.9817 16.0309 24.8164 15.8176C24.651 15.6043 24.451 15.4363 24.2164 15.3136C23.987 15.1909 23.7364 15.1296 23.4644 15.1296C23.1977 15.1296 22.947 15.1909 22.7124 15.3136C22.483 15.4363 22.2857 15.6043 22.1204 15.8176C21.9604 16.0256 21.843 16.2656 21.7684 16.5376Z" fill="white"/>
<ellipse cx="8.09892" cy="2.60271" rx="1.22002" ry="1.16911" fill="white"/>
<ellipse cx="11.6458" cy="2.60271" rx="1.22002" ry="1.16911" fill="white"/>
<rect x="16.5273" y="1.53906" width="13.9747" height="2.01938" rx="1.00969" fill="white"/>
<defs>
<clipPath id="clip0_5304_355">
<rect width="4" height="4" fill="white" transform="translate(29 6.43359)"/>
</clipPath>
</defs>
</svg>
