<svg width="80" height="80" viewBox="0 0 80 80" fill="none" xmlns="http://www.w3.org/2000/svg">
<path d="M61.25 0H18.75C8.39466 0 0 8.39466 0 18.75V61.25C0 71.6053 8.39466 80 18.75 80H61.25C71.6053 80 80 71.6053 80 61.25V18.75C80 8.39466 71.6053 0 61.25 0Z" fill="#F4F2ED"/>
<path d="M18.75 0.5H61.25C71.3292 0.5 79.5 8.6708 79.5 18.75V61.25C79.5 71.3292 71.3292 79.5 61.25 79.5H18.75C8.6708 79.5 0.5 71.3292 0.5 61.25V18.75C0.5 8.6708 8.6708 0.5 18.75 0.5Z" stroke="#111933" stroke-opacity="0.4"/>
</svg>
