<svg width="33" height="32" viewBox="0 0 33 32" fill="none" xmlns="http://www.w3.org/2000/svg">
<ellipse cx="16.9272" cy="16" rx="16.0131" ry="16" fill="#FFCC00"/>
<path d="M23.6861 8.33486C23.8869 8.54917 23.9998 8.83981 23.9998 9.14286C23.9998 9.4459 23.8869 9.73654 23.6861 9.95086L10.8289 23.6651C10.6269 23.8733 10.3562 23.9885 10.0753 23.9859C9.79436 23.9833 9.52563 23.8631 9.32698 23.6512C9.12833 23.4393 9.01565 23.1527 9.01321 22.853C9.01077 22.5534 9.11876 22.2647 9.31393 22.0491L22.1711 8.33486C22.372 8.1206 22.6445 8.00024 22.9286 8.00024C23.2127 8.00024 23.4851 8.1206 23.6861 8.33486ZM21.8571 24C22.4255 24 22.9705 23.7592 23.3724 23.3305C23.7742 22.9019 24 22.3205 24 21.7143C24 21.1081 23.7742 20.5267 23.3724 20.098C22.9705 19.6694 22.4255 19.4286 21.8571 19.4286C21.2888 19.4286 20.7438 19.6694 20.3419 20.098C19.9401 20.5267 19.7143 21.1081 19.7143 21.7143C19.7143 22.3205 19.9401 22.9019 20.3419 23.3305C20.7438 23.7592 21.2888 24 21.8571 24ZM11.1429 12.5714C11.7112 12.5714 12.2562 12.3306 12.6581 11.902C13.0599 11.4733 13.2857 10.8919 13.2857 10.2857C13.2857 9.67951 13.0599 9.09812 12.6581 8.66947C12.2562 8.24082 11.7112 8 11.1429 8C10.5745 8 10.0295 8.24082 9.62763 8.66947C9.22576 9.09812 9 9.67951 9 10.2857C9 10.8919 9.22576 11.4733 9.62763 11.902C10.0295 12.3306 10.5745 12.5714 11.1429 12.5714Z" fill="white"/>
</svg>
