<svg width="33" height="32" viewBox="0 0 33 32" fill="none" xmlns="http://www.w3.org/2000/svg">
<ellipse cx="16.0053" cy="16.0039" rx="16.0131" ry="16" fill="#FFCC00"/>
<path d="M22.0057 9.00041C22.2711 9.00041 22.5255 9.10581 22.7131 9.29342C22.9007 9.48104 23.0061 9.73549 23.0061 10.0008V22.0057C23.0061 22.2711 22.9007 22.5255 22.7131 22.7131C22.5255 22.9007 22.2711 23.0061 22.0057 23.0061H10.0008C9.73549 23.0061 9.48104 22.9007 9.29342 22.7131C9.10581 22.5255 9.00041 22.2711 9.00041 22.0057V10.0008C9.00041 9.73549 9.10581 9.48104 9.29342 9.29342C9.48104 9.10581 9.73549 9.00041 10.0008 9.00041H22.0057ZM10.0008 8C9.47017 8 8.96125 8.2108 8.58603 8.58603C8.2108 8.96125 8 9.47017 8 10.0008V22.0057C8 22.5364 8.2108 23.0453 8.58603 23.4205C8.96125 23.7957 9.47017 24.0065 10.0008 24.0065H22.0057C22.5364 24.0065 23.0453 23.7957 23.4205 23.4205C23.7957 23.0453 24.0065 22.5364 24.0065 22.0057V10.0008C24.0065 9.47017 23.7957 8.96125 23.4205 8.58603C23.0453 8.2108 22.5364 8 22.0057 8H10.0008Z" fill="white"/>
<path d="M13.258 13.7869C13.2567 13.8192 13.2619 13.8515 13.2735 13.8817C13.285 13.9119 13.3026 13.9394 13.3252 13.9626C13.3478 13.9857 13.3749 14.004 13.4048 14.0163C13.4347 14.0286 13.4668 14.0346 13.4991 14.034H14.3245C14.4625 14.034 14.5726 13.921 14.5906 13.7839C14.6806 13.1277 15.1308 12.6495 15.9331 12.6495C16.6194 12.6495 17.2477 12.9926 17.2477 13.8179C17.2477 14.4532 16.8735 14.7453 16.2823 15.1895C15.609 15.6787 15.0758 16.2499 15.1138 17.1773L15.1168 17.3944C15.1178 17.46 15.1446 17.5226 15.1914 17.5687C15.2382 17.6147 15.3012 17.6405 15.3669 17.6405H16.1782C16.2446 17.6405 16.3082 17.6142 16.3551 17.5673C16.402 17.5204 16.4283 17.4567 16.4283 17.3904V17.2854C16.4283 16.5671 16.7014 16.358 17.4387 15.7988C18.048 15.3356 18.6832 14.8214 18.6832 13.7419C18.6832 12.2303 17.4067 11.5 16.0092 11.5C14.7416 11.5 13.3531 12.0902 13.258 13.7869ZM14.8157 19.5523C14.8157 20.0855 15.2408 20.4797 15.8261 20.4797C16.4353 20.4797 16.8545 20.0855 16.8545 19.5523C16.8545 19.0001 16.4343 18.6119 15.8251 18.6119C15.2408 18.6119 14.8157 19.0001 14.8157 19.5523Z" fill="white"/>
</svg>
