<svg width="33" height="32" viewBox="0 0 33 32" fill="none" xmlns="http://www.w3.org/2000/svg">
<ellipse cx="16.0131" cy="16" rx="16.0131" ry="16" fill="#FFCC00"/>
<path d="M23.214 7.99609H8.80814C8.59588 7.99609 8.39231 8.08041 8.24222 8.2305C8.09213 8.38059 8.00781 8.58416 8.00781 8.79642V23.2023C8.00781 23.4146 8.09213 23.6181 8.24222 23.7682C8.39231 23.9183 8.59588 24.0026 8.80814 24.0026H23.214C23.4263 24.0026 23.6299 23.9183 23.7799 23.7682C23.93 23.6181 24.0144 23.4146 24.0144 23.2023V8.79642C24.0144 8.58416 23.93 8.38059 23.7799 8.2305C23.6299 8.08041 23.4263 7.99609 23.214 7.99609ZM12.8098 22.402H9.60847V9.59675H12.8098V22.402ZM22.4137 22.402H14.4104V9.59675H22.4137V22.402Z" fill="white"/>
</svg>
