<svg width="365" height="225" viewBox="0 0 365 225" fill="none" xmlns="http://www.w3.org/2000/svg">
<path d="M299.244 128.32H212.542L194.906 216.7H287.363C296.185 194.564 301.091 172.033 302.27 135.328C302.313 134.01 302.064 132.698 301.541 131.486C301.018 130.275 300.234 129.194 299.244 128.32Z" fill="#5A53F2"/>
<path d="M299.295 128.329C298.709 152.705 295.576 172.033 291.05 188.692C288.458 198.203 285.305 207.552 281.61 216.692H191.156L208.8 128.32L299.295 128.329Z" fill="#AAAAF3"/>
<g style="mix-blend-mode:multiply">
<path d="M291.05 188.692C288.457 198.203 285.305 207.552 281.61 216.692H216.632C215.198 207.057 247.427 133.311 247.427 133.311C247.427 133.311 256.422 181 291.05 188.692Z" fill="#AAAAF3"/>
</g>
<path d="M153.361 206.523C153.361 206.523 164.038 206.119 170.601 196.945C177.164 187.771 183.133 175.039 183.133 175.039L160.477 169.934L153.361 206.523Z" fill="#AA7950"/>
<path d="M183.99 96.5978C183.99 96.5978 160.97 127.068 198.237 135.525C235.503 143.983 250.072 127.002 252.529 116.428C255.093 105.385 239.024 81.7663 233.335 68.7629C227.646 55.7596 214.883 64.2171 214.883 64.2171L183.99 96.5978Z" fill="#262728"/>
<path d="M197.058 131.062C197.058 131.062 179.983 126.269 182.811 112.615C182.811 112.615 176.528 126.006 192.837 132.38C209.145 138.754 197.058 131.062 197.058 131.062Z" fill="white"/>
<path d="M278.549 167.083C278.335 167.009 275.128 166.012 268.425 172.699C261.491 179.633 249.866 178.143 249.866 178.143L246.114 218.964H194.502C194.502 218.964 195.5 209.601 189.118 199.669C183.273 190.611 181.632 184.385 181.451 183.644C181.452 183.619 181.452 183.594 181.451 183.57C180.088 183.55 178.728 183.421 177.386 183.183C173.14 182.458 166.734 180.391 163.972 174.503C159.66 165.337 154.416 164.398 154.416 164.398C154.416 164.398 172.258 143.678 178.821 137.494C180.423 136.015 182.181 134.715 184.064 133.615C187.319 131.699 190.835 130.265 194.502 129.357L239.115 129.588C240.726 129.819 242.323 130.143 243.897 130.56C247.417 131.482 252.141 133.154 255.299 136.003C260.848 140.985 278.08 166.416 278.549 167.083Z" fill="#00296B"/>
<path d="M243.898 130.56C237.648 136.086 210.919 159.383 204.842 159.539C199.945 159.646 189.639 143.209 184.049 133.615C187.309 131.698 190.83 130.263 194.503 129.357L239.116 129.588C240.727 129.819 242.324 130.143 243.898 130.56Z" fill="#6F88B1"/>
<g style="mix-blend-mode:multiply" opacity="0.36">
<path d="M183.093 155.752L181.444 183.57C180.08 183.551 178.721 183.422 177.379 183.183L183.093 155.752Z" fill="#CC7F4D"/>
<path d="M209.749 195.635C205.626 202.52 216.872 209.939 214.267 218.965H194.479C194.479 218.965 195.477 209.602 189.095 199.67C183.25 190.611 181.609 184.386 181.428 183.645C181.716 184.468 184.94 192.827 204.818 187.63C225.752 182.154 235.876 191.559 235.876 191.559C235.876 191.559 213.97 188.652 209.749 195.635Z" fill="#CC7F4D"/>
<path d="M249.867 178.136L237.5 154.254C237.5 154.254 240.501 187.038 248.391 194.326L249.867 178.136Z" fill="#CC7F4D"/>
</g>
<path d="M279.35 216.7H195.962C192.31 216.7 185.978 212.772 185.978 212.772C185.978 212.772 181.031 216.7 178.252 217.013C175.474 217.326 180.149 212.195 180.602 211.685C180.017 212.154 172.275 218.322 170.791 216.774C169.9 215.835 171.063 214.517 172.209 213.554C170.106 215.003 166.602 217.177 165.168 216.7C163.057 216 173.182 207.575 176.133 205.459C179.085 203.342 184.007 203.812 186.967 203.812C189.927 203.812 208.065 209.7 208.065 209.7L261.772 200.715L253.288 183.108L250.938 178.225C260.783 179.345 265.424 172.411 272.944 168.895C272.944 168.895 273.01 169.051 273.125 169.356C274.37 172.65 282.021 192.612 285.113 200.509C288.485 209.115 285.682 216.7 279.35 216.7Z" fill="#C69C7A"/>
<path d="M273.124 169.356C273.124 169.356 270.016 171.571 265.151 177.468C263.695 179.203 261.882 180.605 259.834 181.579C257.787 182.552 255.554 183.074 253.287 183.109L250.938 178.225C260.782 179.345 265.424 172.411 272.943 168.895C272.91 168.887 273.009 169.051 273.124 169.356Z" fill="#AA7950"/>
<path d="M261.772 200.691C261.772 200.691 273.479 198.352 278.55 205.748C278.55 205.748 272.135 195.108 260.576 198.212L261.772 200.691Z" fill="#AA7950"/>
<path d="M239.106 129.588C201.287 155.71 194.502 129.358 194.502 129.358L205.031 126.228C205.651 123.989 205.838 121.653 205.583 119.344C205.448 118.126 205.2 116.924 204.841 115.753C204.383 114.194 203.706 112.708 202.829 111.339L209.788 106.348L219.682 99.2333L222.782 97.0098C222.782 97.5121 222.881 98.0145 222.938 98.5003C224.043 108.794 225.75 118.149 228.404 126.088L239.106 129.588Z" fill="#C69C7A"/>
<path d="M228.43 126.064C215.807 131.006 205.584 119.32 205.584 119.32C205.449 118.102 205.2 116.9 204.842 115.729L209.789 106.325L219.682 99.2095L222.939 98.4766C224.069 108.771 225.775 118.142 228.43 126.064Z" fill="#AA7950"/>
<path d="M184.435 95.6506C182.541 93.2679 181.205 90.4925 180.523 87.5274C179.841 84.5623 179.831 81.4825 180.494 78.5132C182.86 68.5651 193.447 74.2803 193.447 74.2803L184.435 95.6506Z" fill="#262728"/>
<path d="M217.31 105.865C228.501 99.557 232.452 85.3817 226.136 74.2042C219.821 63.0266 205.629 59.0795 194.438 65.388C183.248 71.6965 179.296 85.8717 185.612 97.0493C191.928 108.227 206.119 112.174 217.31 105.865Z" fill="#C69C7A"/>
<path d="M223.342 100.988C218.099 112.394 210.794 117.063 205.649 118.982C203.907 119.621 202.017 119.748 200.205 119.347C198.393 118.945 196.734 118.032 195.426 116.717C191.853 113.132 188.934 108.952 186.802 104.364C186.373 103.475 185.977 102.594 185.664 101.721C183.513 96.3919 182.473 90.6814 182.605 84.9375L223.342 100.988Z" fill="#C69C7A"/>
<path d="M223.607 92.2992C223.607 92.2992 230.739 87.3581 231.975 92.6204C233.212 97.8827 226.435 106.258 221.439 104.01C216.442 101.761 223.607 92.2992 223.607 92.2992Z" fill="#C69C7A"/>
<path d="M222.617 100.188C222.617 100.188 225.651 92.9084 228.496 92.052C231.34 91.1955 230.681 95.346 230.681 95.346C230.681 95.346 230.31 92.9414 228.793 93.3861C227.275 93.8308 226.319 96.1037 226.319 96.1037C226.319 96.1037 228.207 95.2801 228.43 96.639C228.652 97.9978 225.544 98.6895 225.544 98.6895C225.544 98.6895 226.756 97.5613 225.874 97.1578C224.585 97.925 223.475 98.9582 222.617 100.188Z" fill="#AA7950"/>
<path d="M220.144 98.6496C220.144 98.6496 214.628 95.6767 216.697 88.018C216.697 88.018 190.817 95.3226 182.993 81.4298C182.993 81.4298 182.646 61.0148 202.97 56.8808C223.293 52.7467 234.984 69.9088 231.975 92.6297C231.975 92.6297 227.275 85.8604 220.144 98.6496Z" fill="#262728"/>
<path d="M186.703 73.8858C186.703 73.8858 194.494 54.9449 214.307 59.7048C214.307 59.7048 196.465 57.7119 186.703 73.8858Z" fill="#44474A"/>
<path d="M196.234 91.3115C196.234 91.3115 198.246 88.3304 202.871 88.6104C204.152 88.6473 205.394 89.0512 206.451 89.774C207.508 90.4967 208.335 91.5079 208.832 92.6868C208.832 92.6868 205.98 89.335 202.162 90.5127C198.345 91.6903 196.234 91.3115 196.234 91.3115Z" fill="#262728"/>
<path d="M197.438 94.5735C199.911 92.4324 204.033 92.9759 206.152 95.397C204.825 94.694 203.372 94.2594 201.877 94.118C200.382 93.9767 198.873 94.1315 197.438 94.5735Z" fill="#262728"/>
<path d="M202.087 95.1495C202.26 96.0389 201.889 96.8542 201.263 96.9777C200.636 97.1012 199.993 96.4754 199.82 95.586C199.647 94.6966 200.018 93.8813 200.644 93.7577C201.271 93.6342 201.914 94.2601 202.087 95.1495Z" fill="#262728"/>
<path d="M191.155 91.6084C191.155 91.6084 189.869 88.6272 186.909 88.9072C183.949 89.1872 183.092 93.0248 183.092 93.0248C183.092 93.0248 184.922 89.6731 187.363 90.859C189.803 92.0448 191.155 91.6084 191.155 91.6084Z" fill="#262728"/>
<path d="M185.928 95.7995C186.752 93.2796 190.297 92.9337 192.021 94.7948C189.861 94.1689 187.659 94.1937 185.928 95.7995Z" fill="#262728"/>
<path d="M190.982 95.593C191.155 96.4824 190.793 97.2977 190.158 97.4212C189.523 97.5448 188.88 96.9189 188.707 96.0295C188.533 95.1401 188.904 94.3248 189.531 94.2013C190.158 94.0777 190.809 94.6954 190.982 95.593Z" fill="#262728"/>
<path d="M193.232 108.218C193.232 106.917 194.222 105.468 195.912 106.044C197.602 106.621 197.396 107.79 195.648 107.625C193.9 107.461 193.232 108.218 193.232 108.218Z" fill="#AA7950"/>
<path d="M196.877 112.246L205.88 110.277C205.88 110.277 203.3 113.744 200.884 114.774C198.468 115.803 196.877 112.246 196.877 112.246Z" fill="white"/>
<g style="mix-blend-mode:multiply" opacity="0.36">
<path d="M207.71 101.868C209.099 101.868 210.225 101.216 210.225 100.411C210.225 99.6057 209.099 98.9531 207.71 98.9531C206.321 98.9531 205.195 99.6057 205.195 100.411C205.195 101.216 206.321 101.868 207.71 101.868Z" fill="#C26862"/>
</g>
<g style="mix-blend-mode:multiply" opacity="0.36">
<path d="M186.9 104.652C186.496 103.828 186.142 103.005 185.82 102.181C186.785 101.975 187.618 102.181 187.873 102.766C188.129 103.351 187.708 104.084 186.9 104.652Z" fill="#C26862"/>
</g>
<path d="M203.06 149.385C203.06 153.774 184.559 153.774 184.559 149.385V128.451H203.06V149.385Z" fill="#5A53F2"/>
<path d="M203.06 128.453C203.06 129.334 198.937 130.05 193.809 130.05C188.681 130.05 184.559 129.334 184.559 128.453C184.559 127.572 188.681 126.863 193.809 126.863C198.937 126.863 203.06 127.572 203.06 128.453Z" fill="#AAAAF3"/>
<path d="M193.811 129.399C189.259 129.399 186.39 128.773 185.467 128.321C186.415 127.868 189.259 127.25 193.811 127.25C198.362 127.25 201.231 127.868 202.154 128.321C201.181 128.773 198.362 129.399 193.811 129.399Z" fill="#5A53F2"/>
<path d="M145.495 203.4C134.711 193.32 165.761 152.597 170.452 143.613C170.882 142.785 171.438 142.03 172.101 141.373C173.931 139.545 177.361 136.16 178.383 135.476C179.81 134.529 184.559 133.311 184.559 133.311V136.893C184.559 136.893 196.101 136.81 200.224 135.987C204.61 135.114 201.873 137.865 192.053 140.335L193.62 140.698C195.513 141.135 197.498 140.926 199.259 140.105C201.065 139.281 203.208 138.334 203.695 138.4C205.113 138.589 201.032 142.575 197.998 143.992C197.998 143.992 203.027 140.483 203.406 142.287C203.786 144.09 198.187 146.652 195.714 148.167C193.24 149.682 180.568 149.682 180.568 149.682C180.568 149.682 176.866 166.663 171.738 183.825C166.61 200.987 155.092 212.377 145.495 203.4Z" fill="#C69C7A"/>
<path d="M196.523 146.709C196.523 146.709 202.863 147.458 202.847 148.447C202.83 149.435 191.469 149.147 191.469 149.147L196.523 146.709Z" fill="#C69C7A"/>
<path d="M180.569 149.682L174.418 150.126C176.015 151.397 177.891 152.272 179.892 152.679L180.569 149.682Z" fill="#AA7950"/>
<path d="M309.37 203.474V205.121H270.735C269.597 205.121 268.507 204.67 267.703 203.867C266.899 203.064 266.447 201.975 266.447 200.839C266.447 199.703 266.899 198.614 267.703 197.811C268.507 197.008 269.597 196.557 270.735 196.557H309.37V203.474Z" fill="#6A9E95"/>
<path d="M304.802 200.798C304.811 201.515 305.104 202.199 305.617 202.701C306.13 203.203 306.821 203.481 307.539 203.474H346.174V205.121H307.539C306.402 205.121 305.312 204.67 304.508 203.867C303.704 203.064 303.252 201.975 303.252 200.839C303.252 199.703 303.704 198.614 304.508 197.811C305.312 197.008 306.402 196.557 307.539 196.557H346.174V198.13H307.539C306.823 198.123 306.133 198.4 305.62 198.9C305.107 199.4 304.813 200.082 304.802 200.798Z" fill="#81C2B7"/>
<path d="M343.601 198.09V203.475H307.539C306.819 203.475 306.129 203.19 305.621 202.682C305.112 202.174 304.826 201.485 304.826 200.766C304.826 200.047 305.112 199.358 305.621 198.85C306.129 198.342 306.819 198.057 307.539 198.057L343.601 198.09Z" fill="#E1E1FD"/>
<path d="M300.943 205.121H296.82C294.24 205.121 294.24 196.557 296.82 196.557H300.943C297.719 196.516 297.719 205.121 300.943 205.121Z" fill="#81C2B7"/>
<path d="M277.561 205.121H273.488C270.908 205.121 270.908 196.557 273.488 196.557H277.561C274.354 196.516 274.354 205.121 277.561 205.121Z" fill="#81C2B7"/>
<path d="M295.814 205.121H293.472C290.9 205.121 290.9 196.557 293.472 196.557H295.814C292.607 196.516 292.607 205.121 295.814 205.121Z" fill="#81C2B7"/>
<path d="M308.61 214.559V216.7H264.229C263.464 216.705 262.706 216.559 261.998 216.269C261.29 215.979 260.647 215.552 260.106 215.012C259.566 214.472 259.138 213.829 258.847 213.122C258.557 212.416 258.411 211.658 258.416 210.894C258.418 209.352 259.028 207.873 260.115 206.777C260.655 206.235 261.297 205.806 262.005 205.515C262.713 205.223 263.472 205.076 264.237 205.08H308.61V214.559Z" fill="#5A53F2"/>
<path d="M302.419 210.886C302.419 211.858 302.806 212.79 303.494 213.478C304.182 214.165 305.115 214.551 306.088 214.551H343.445V216.692H306.088C304.583 216.635 303.159 215.999 302.114 214.915C301.07 213.832 300.486 212.386 300.486 210.882C300.486 209.378 301.07 207.933 302.114 206.849C303.159 205.766 304.583 205.129 306.088 205.072H343.445V207.213H306.088C305.114 207.216 304.181 207.604 303.493 208.292C302.805 208.981 302.419 209.914 302.419 210.886Z" fill="#7070DD"/>
<path d="M340.006 207.221V214.558H306.087C305.143 214.514 304.252 214.108 303.6 213.424C302.948 212.741 302.584 211.833 302.584 210.889C302.584 209.945 302.948 209.038 303.6 208.355C304.252 207.671 305.143 207.265 306.087 207.221H340.006Z" fill="#E1E1FD"/>
<path d="M273.48 216.7H267.964C264.46 216.7 264.46 205.08 267.964 205.08H273.488C269.135 205.121 269.135 216.7 273.48 216.7Z" fill="#AAAAF3"/>
<path d="M39.3188 184.823C39.3188 184.823 39.0385 175.929 41.0997 173.293C43.1609 170.658 43.1609 181.817 43.1609 181.817C43.1609 181.817 44.5707 176.752 46.0713 176.752C47.5718 176.752 47.8274 185.358 47.8274 185.358C47.8274 185.358 48.6024 181.52 50.7708 182.459C50.7708 182.459 52.8485 174.306 55.0993 173.557C57.3501 172.808 56.4267 188.825 56.1876 188.545C55.9485 188.265 58.3972 176.447 59.8401 176.736C61.2829 177.024 60.8212 187.977 60.8212 187.977C60.8212 187.977 58.4714 195.833 58.1911 195.388C57.9108 194.944 35.6004 195.388 35.6004 195.388C35.6004 195.388 33.6299 177.872 35.6004 176.752C37.5709 175.632 39.3188 184.823 39.3188 184.823Z" fill="#6A9E95"/>
<path d="M34.9175 195.396C34.9175 195.396 30.1356 180.705 31.6196 177.238C33.1037 173.771 40.1447 191.188 40.1447 191.188C40.1447 191.188 40.7548 184.6 42.5605 183.776C44.3661 182.953 44.6464 190.052 44.6464 190.052C44.6464 190.052 46.5179 186.955 48.3978 187.985C50.2776 189.014 50.2693 192.975 50.2693 192.975C50.2693 192.975 53.9465 182.928 56.1396 182.179C58.3327 181.429 57.3928 192.975 57.3928 192.975C57.3928 192.975 60.4929 176.118 63.395 176.76C66.2972 177.402 60.6742 195.38 60.6742 195.38L34.9175 195.396Z" fill="#81C2B7"/>
<path d="M34.4146 181.914C34.7444 182.927 34.7032 183.858 34.3239 183.981C33.9447 184.105 33.3593 183.38 33.0295 182.334C32.6997 181.288 32.7409 180.391 33.1202 180.259C33.4994 180.127 34.0766 180.893 34.4146 181.914Z" fill="#A2E6D2"/>
<path d="M56.8322 184.962C56.6013 185.538 56.1149 185.893 55.7439 185.786C55.3728 185.678 55.2492 185.044 55.48 184.468C55.7109 183.891 56.1973 183.529 56.5683 183.644C56.9394 183.76 57.063 184.377 56.8322 184.962Z" fill="#A2E6D2"/>
<path d="M56.4276 187.235C56.2709 187.639 55.9329 187.886 55.669 187.779C55.4052 187.672 55.331 187.268 55.4877 186.865C55.6443 186.461 55.9824 186.214 56.2462 186.313C56.51 186.412 56.5842 186.823 56.4276 187.235Z" fill="#A2E6D2"/>
<path d="M63.494 180.631C63.3373 181.035 62.9993 181.282 62.7355 181.183C62.4716 181.084 62.3974 180.672 62.5541 180.26C62.7107 179.849 63.057 179.61 63.3126 179.717C63.5682 179.824 63.6671 180.228 63.494 180.631Z" fill="#A2E6D2"/>
<path d="M55.4951 183.594C55.4374 183.759 55.2972 183.849 55.1983 183.808C55.0994 183.767 55.0664 183.61 55.1241 183.454C55.1818 183.297 55.322 183.199 55.4209 183.24C55.5199 183.281 55.5611 183.437 55.4951 183.594Z" fill="#A2E6D2"/>
<path d="M35.8487 184.534C36.0136 185.053 35.9641 185.547 35.725 185.621C35.4859 185.695 35.1561 185.333 34.983 184.797C34.8098 184.262 34.8676 183.776 35.1067 183.702C35.3458 183.628 35.6755 184.032 35.8487 184.534Z" fill="#A2E6D2"/>
<path d="M48.9581 189.401C49.1313 189.928 49.0736 190.414 48.8427 190.496C48.6118 190.579 48.2738 190.208 48.1007 189.673C47.9275 189.138 47.9852 188.66 48.2161 188.586C48.447 188.512 48.785 188.874 48.9581 189.401Z" fill="#A2E6D2"/>
<path d="M50.7461 216.701H58.0592L61.5715 194.787H50.7461V216.701Z" fill="#AAAAF3"/>
<path d="M50.5741 216.701H35.9478L32.4355 194.787H52.726L50.5741 216.701Z" fill="#E1E1FD"/>
<path d="M175.861 216.7H143.236V211.783L172.489 214.451L175.861 216.7Z" fill="#32324F"/>
<path d="M153.329 216.7H74.7807L59.8164 167.61L61.284 165.436H136.773L153.329 216.7Z" fill="#8888F4"/>
<path d="M150.146 216.701H74.7807L59.8164 167.611H135.198L150.146 216.701Z" fill="#E1E1FD"/>
<path d="M110.05 193.477C110.875 196.375 109.646 198.723 107.239 198.723C104.832 198.723 102.185 196.375 101.328 193.477C100.47 190.578 101.731 188.223 104.139 188.223C106.546 188.223 109.193 190.578 110.05 193.477Z" fill="#F9F9FF"/>
<g style="mix-blend-mode:multiply" opacity="0.4">
<path d="M74.7804 216.701C74.7804 216.701 74.195 200.132 100.339 206.523C126.483 212.913 138.265 191.411 135.182 167.611L150.138 216.701H74.7804Z" fill="#AAAAF3"/>
</g>
<path d="M364.139 216.701H0V224.294H364.139V216.701Z" fill="#5F5F97"/>
<path d="M364.14 216.701H292.525V224.294H364.14V216.701Z" fill="#3A3A5A"/>
<path d="M98.1785 47.8297C97.8258 47.8281 97.4808 47.726 97.1841 47.5355C96.8874 47.345 96.6512 47.074 96.5032 46.7542C96.3552 46.4343 96.3016 46.079 96.3486 45.7298C96.3956 45.3807 96.5413 45.0521 96.7686 44.7827L123.152 13.5961C124.368 12.1549 125.996 11.1202 127.818 10.6314L167.377 0.0656871C167.758 -0.0385563 168.161 -0.018311 168.53 0.123459C168.898 0.265229 169.211 0.521067 169.423 0.85348C169.635 1.18589 169.735 1.5774 169.708 1.97062C169.681 2.36385 169.529 2.73813 169.273 3.03859L142.89 34.2334C141.675 35.674 140.046 36.7062 138.223 37.1899L98.7227 47.7885C98.5441 47.8274 98.3609 47.8413 98.1785 47.8297ZM166.371 2.75035L128.445 12.9208C127.089 13.2835 125.875 14.0505 124.966 15.1196L99.6213 45.0545L137.547 34.884C138.895 34.5173 140.098 33.7471 140.994 32.677L166.371 2.75035Z" fill="#00296B"/>
<path d="M120.786 57.8842L111.609 43.4314L113.605 42.1632L121.849 55.1336L148.595 47.7302L166.701 26.6976L158.333 13.5295L160.336 12.2695L169.636 26.9117L149.923 49.8137L120.786 57.8842Z" fill="#00296B"/>
<path d="M133.525 67.6275L116.73 41.1926L132.115 23.1328L133.913 24.6646L119.666 41.3984L135.52 66.3593L133.525 67.6275Z" fill="#00296B"/>
<path d="M134.118 67.0153L135.058 66.4196C135.541 66.113 136.127 66.0108 136.686 66.1357C137.245 66.2605 137.732 66.602 138.039 67.0852L141.299 72.2166L136.705 75.129L133.445 69.9975C133.292 69.7577 133.189 69.4902 133.14 69.2104C133.091 68.9305 133.099 68.6438 133.161 68.3667C133.224 68.0897 133.341 67.8276 133.505 67.5957C133.669 67.3638 133.877 67.1665 134.118 67.0153Z" fill="#00296B"/>
<path d="M285.056 77.7653L245.704 64.9185C244.578 64.551 243.644 63.7522 243.108 62.6975C242.571 61.6429 242.476 60.4187 242.843 59.2938L251.129 33.8307C251.498 32.7075 252.298 31.7764 253.354 31.2409C254.409 30.7054 255.634 30.6091 256.76 30.9731L296.145 43.8199C297.27 44.1893 298.202 44.9884 298.738 46.0424C299.274 47.0965 299.371 48.3197 299.006 49.4446L290.687 74.8995C290.319 76.0241 289.52 76.9572 288.464 77.4944C287.409 78.0315 286.183 78.129 285.056 77.7653ZM256.026 33.2295C255.497 33.0579 254.921 33.1029 254.425 33.3545C253.929 33.6061 253.553 34.0438 253.379 34.5718L245.06 60.035C244.974 60.2967 244.941 60.5728 244.962 60.8475C244.983 61.1222 245.058 61.39 245.183 61.6356C245.307 61.8813 245.48 62.0998 245.689 62.2788C245.899 62.4578 246.142 62.5936 246.404 62.6785L285.79 75.5171C286.319 75.6864 286.894 75.6404 287.389 75.3891C287.885 75.1378 288.261 74.7015 288.436 74.1748L296.755 48.7199C296.927 48.1913 296.882 47.6163 296.63 47.1208C296.378 46.6253 295.94 46.2497 295.411 46.0764L256.026 33.2295Z" fill="#00296B"/>
<path d="M264.74 59.8202L267.618 51.025C267.7 50.7764 267.847 50.5541 268.044 50.3808C268.241 50.2075 268.48 50.0892 268.737 50.0382C268.994 49.9871 269.26 50.0051 269.508 50.0902C269.756 50.1753 269.977 50.3245 270.149 50.5227L275.92 57.2837C276.085 57.4767 276.198 57.7087 276.247 57.9576C276.297 58.2065 276.282 58.464 276.203 58.7053C276.125 58.9466 275.985 59.1638 275.799 59.3359C275.612 59.508 275.384 59.6294 275.137 59.6884L266.455 61.7225C266.201 61.775 265.938 61.7603 265.692 61.6796C265.445 61.599 265.225 61.4553 265.051 61.2629C264.878 61.0705 264.758 60.8361 264.703 60.5829C264.649 60.3298 264.661 60.0668 264.74 59.8202Z" fill="#00296B"/>
<path d="M297.415 54.3113L249.537 38.6645L251.128 33.7975C251.498 32.6743 252.298 31.7432 253.353 31.2077C254.409 30.6722 255.633 30.5759 256.76 30.9399L296.145 43.7867C297.269 44.1561 298.202 44.9552 298.738 46.0092C299.274 47.0633 299.37 48.2865 299.006 49.4114L297.415 54.3113ZM252.522 37.1904L295.898 51.3302L296.722 48.7196C296.894 48.191 296.849 47.616 296.597 47.1205C296.345 46.625 295.907 46.2495 295.378 46.0761L255.993 33.2292C255.464 33.0577 254.888 33.1026 254.392 33.3542C253.896 33.6058 253.52 34.0436 253.346 34.5716L252.522 37.1904Z" fill="#00296B"/>
<path d="M261.244 41.2748L257.971 40.2042L257.6 32.4961L260.873 33.5584L261.244 41.2748Z" fill="#00296B"/>
<path d="M268.986 43.7943L265.705 42.7238L265.334 35.0156L268.607 36.0862L268.986 43.7943Z" fill="#00296B"/>
<path d="M276.719 46.3154L273.446 45.253L273.066 37.5449L276.348 38.6073L276.719 46.3154Z" fill="#00296B"/>
<path d="M284.453 48.8349L281.18 47.7726L280.809 40.0645L284.082 41.1268L284.453 48.8349Z" fill="#00296B"/>
<path d="M292.187 51.3627L288.914 50.2921L288.543 42.584L291.816 43.6546L292.187 51.3627Z" fill="#00296B"/>
<path d="M111.445 140.78C111.027 140.781 110.616 140.667 110.258 140.45L102.764 135.946H74.3769C72.9643 135.946 71.6096 135.385 70.6108 134.387C69.6119 133.39 69.0508 132.037 69.0508 130.626V104.273C69.0508 102.862 69.6119 101.509 70.6108 100.511C71.6096 99.5136 72.9643 98.9531 74.3769 98.9531H114.306C115.718 98.9553 117.072 99.5165 118.07 100.514C119.068 101.511 119.63 102.863 119.633 104.273V130.626C119.63 132.036 119.068 133.388 118.07 134.385C117.072 135.382 115.718 135.943 114.306 135.946H113.251L113.705 137.971C113.799 138.413 113.763 138.872 113.601 139.293C113.438 139.715 113.156 140.079 112.789 140.343C112.399 140.627 111.928 140.78 111.445 140.78ZM74.3439 101.333C73.5589 101.333 72.8061 101.645 72.251 102.199C71.6959 102.753 71.3841 103.505 71.3841 104.29V130.642C71.3841 131.426 71.6959 132.178 72.251 132.733C72.8061 133.287 73.5589 133.599 74.3439 133.599H103.39L111.33 138.367L110.275 133.599H114.273C115.058 133.599 115.811 133.287 116.366 132.733C116.921 132.178 117.233 131.426 117.233 130.642V104.29C117.233 103.505 116.921 102.753 116.366 102.199C115.811 101.645 115.058 101.333 114.273 101.333H74.3439Z" fill="#00296B"/>
<path d="M89.9997 106.225H76.2227V108.588H89.9997V106.225Z" fill="#00296B"/>
<path d="M111.098 112.236H76.2227V114.6H111.098V112.236Z" fill="#00296B"/>
<path d="M111.098 118.693H76.2227V121.057H111.098V118.693Z" fill="#00296B"/>
<path d="M102.845 124.385H76.2227V126.748H102.845V124.385Z" fill="#00296B"/>
</svg>
