<svg width="32" height="32" viewBox="0 0 32 32" fill="none" xmlns="http://www.w3.org/2000/svg">
<circle cx="16" cy="16" r="16" fill="#FFCC00"/>
<path d="M9.5 21C9.08334 21 8.72934 20.8543 8.438 20.563C8.14667 20.2717 8.00067 19.9173 8 19.5C7.99934 19.0827 8.14534 18.7287 8.438 18.438C8.73067 18.1473 9.08467 18.0013 9.5 18H22.5C22.9167 18 23.271 18.146 23.563 18.438C23.855 18.73 24.0007 19.084 24 19.5C23.9993 19.916 23.8537 20.2703 23.563 20.563C23.2723 20.8557 22.918 21.0013 22.5 21H9.5ZM9.5 14C9.08334 14 8.72934 13.8543 8.438 13.563C8.14667 13.2717 8.00067 12.9173 8 12.5C7.99934 12.0827 8.14534 11.7287 8.438 11.438C8.73067 11.1473 9.08467 11.0013 9.5 11H22.5C22.9167 11 23.271 11.146 23.563 11.438C23.855 11.73 24.0007 12.084 24 12.5C23.9993 12.916 23.8537 13.2703 23.563 13.563C23.2723 13.8557 22.918 14.0013 22.5 14H9.5Z" fill="white"/>
</svg>
