<svg width="32" height="32" viewBox="0 0 32 32" fill="none" xmlns="http://www.w3.org/2000/svg">
<circle cx="16" cy="16" r="16" fill="#FFCC00"/>
<path d="M20.4286 17.2857H11.8571L9 20.1429V8.71429C9 8.52485 9.07525 8.34316 9.20921 8.20921C9.34316 8.07525 9.52485 8 9.71429 8H20.4286C20.618 8 20.7997 8.07525 20.9336 8.20921C21.0676 8.34316 21.1429 8.52485 21.1429 8.71429V16.5714C21.1429 16.7609 21.0676 16.9426 20.9336 17.0765C20.7997 17.2105 20.618 17.2857 20.4286 17.2857ZM24 13V23L21.1429 20.1429H13.2857C13.0963 20.1429 12.9146 20.0676 12.7806 19.9336C12.6467 19.7997 12.5714 19.618 12.5714 19.4286V18.7143H22.5714V12.2857H23.2857C23.4752 12.2857 23.6568 12.361 23.7908 12.4949C23.9247 12.6289 24 12.8106 24 13ZM13.4214 9.42857C12.8 9.42857 12.3 9.57143 11.9143 9.85C11.5429 10.1429 11.3571 10.55 11.3643 11.1143L11.3714 11.1357H12.75C12.7571 10.9214 12.8214 10.7571 12.95 10.6429C13.0823 10.5332 13.2496 10.4748 13.4214 10.4786C13.6429 10.4786 13.8286 10.55 13.9571 10.6786C14.0857 10.8143 14.1429 11 14.1429 11.2143C14.1429 11.4429 14.0929 11.6357 13.9786 11.8C13.8786 11.9643 13.7286 12.1071 13.5429 12.2214C13.1786 12.4643 12.9286 12.6786 12.7929 12.8714C12.65 13.0571 12.5714 13.3571 12.5714 13.7143H14C14 13.4929 14.0286 13.3143 14.0929 13.1857C14.1571 13.0571 14.2786 12.9286 14.4571 12.8143C14.7786 12.6429 15.0429 12.4357 15.25 12.15C15.4571 11.8643 15.5643 11.5714 15.5643 11.2143C15.5643 10.6714 15.3714 10.2357 14.9857 9.91429C14.6071 9.59286 14.0857 9.42857 13.4214 9.42857ZM12.5714 14.4286V15.8571H14V14.4286H12.5714ZM16.8571 15.8571H18.2857V14.4286H16.8571V15.8571ZM16.8571 9.42857V13.7143H18.2857V9.42857H16.8571Z" fill="white"/>
</svg>
