<svg width="34" height="25" viewBox="0 0 34 25" fill="none" xmlns="http://www.w3.org/2000/svg">
<path d="M33.9941 5.52672H0.0554554H0V21.8943C0.83183 25.136 3.38278 24.9234 3.54914 24.9765C3.68224 25.019 21.4982 24.9942 30.3895 24.9765C32.7852 24.9765 33.7908 22.7092 33.9941 21.5755V5.52672Z" fill="#FFCC00"/>
<path d="M33.9941 4.57017H0.0554554C-0.299459 1.1266 2.2367 0.0885692 3.54914 0H30.5004C33.4729 0.510159 34.0681 3.25935 33.9941 4.57017Z" fill="#FFCC00"/>
<ellipse cx="4.54814" cy="2.60271" rx="1.22002" ry="1.16911" fill="white"/>
<ellipse cx="8.09892" cy="2.60271" rx="1.22002" ry="1.16911" fill="white"/>
<ellipse cx="11.6458" cy="2.60271" rx="1.22002" ry="1.16911" fill="white"/>
<rect x="16.5273" y="1.53906" width="13.9747" height="2.01938" rx="1.00969" fill="white"/>
<path d="M21.6666 10.1009H20.3333V9.43424C20.3333 9.25743 20.263 9.08786 20.138 8.96284C20.013 8.83782 19.8434 8.76758 19.6666 8.76758C19.4898 8.76758 19.3202 8.83782 19.1952 8.96284C19.0702 9.08786 18.9999 9.25743 18.9999 9.43424V10.1009H14.9999V9.43424C14.9999 9.25743 14.9297 9.08786 14.8047 8.96284C14.6796 8.83782 14.5101 8.76758 14.3333 8.76758C14.1564 8.76758 13.9869 8.83782 13.8618 8.96284C13.7368 9.08786 13.6666 9.25743 13.6666 9.43424V10.1009H12.3333C11.8028 10.1009 11.2941 10.3116 10.919 10.6867C10.544 11.0618 10.3333 11.5705 10.3333 12.1009V20.1009C10.3333 20.6313 10.544 21.1401 10.919 21.5151C11.2941 21.8902 11.8028 22.1009 12.3333 22.1009H21.6666C22.197 22.1009 22.7057 21.8902 23.0808 21.5151C23.4559 21.1401 23.6666 20.6313 23.6666 20.1009V12.1009C23.6666 11.5705 23.4559 11.0618 23.0808 10.6867C22.7057 10.3116 22.197 10.1009 21.6666 10.1009ZM22.3333 20.1009C22.3333 20.2777 22.263 20.4473 22.138 20.5723C22.013 20.6973 21.8434 20.7676 21.6666 20.7676H12.3333C12.1564 20.7676 11.9869 20.6973 11.8618 20.5723C11.7368 20.4473 11.6666 20.2777 11.6666 20.1009V15.4342H22.3333V20.1009ZM22.3333 14.1009H11.6666V12.1009C11.6666 11.9241 11.7368 11.7545 11.8618 11.6295C11.9869 11.5045 12.1564 11.4342 12.3333 11.4342H13.6666V12.1009C13.6666 12.2777 13.7368 12.4473 13.8618 12.5723C13.9869 12.6973 14.1564 12.7676 14.3333 12.7676C14.5101 12.7676 14.6796 12.6973 14.8047 12.5723C14.9297 12.4473 14.9999 12.2777 14.9999 12.1009V11.4342H18.9999V12.1009C18.9999 12.2777 19.0702 12.4473 19.1952 12.5723C19.3202 12.6973 19.4898 12.7676 19.6666 12.7676C19.8434 12.7676 20.013 12.6973 20.138 12.5723C20.263 12.4473 20.3333 12.2777 20.3333 12.1009V11.4342H21.6666C21.8434 11.4342 22.013 11.5045 22.138 11.6295C22.263 11.7545 22.3333 11.9241 22.3333 12.1009V14.1009Z" fill="white"/>
</svg>
