<svg width="32" height="32" viewBox="0 0 32 32" fill="none" xmlns="http://www.w3.org/2000/svg">
<circle cx="16" cy="16" r="16" fill="#FFCC00"/>
<path fill-rule="evenodd" clip-rule="evenodd" d="M16.0103 18.4229L22.072 24.4777C22.3937 24.799 22.8299 24.9795 23.2848 24.9795C23.7397 24.9795 24.176 24.799 24.4976 24.4777C24.8193 24.1564 25 23.7207 25 23.2663C25 22.8119 24.8193 22.3761 24.4976 22.0549L18.4336 16L24.4965 9.94514C24.6557 9.78606 24.782 9.59721 24.8681 9.38938C24.9542 9.18155 24.9985 8.95881 24.9985 8.73388C24.9984 8.50895 24.954 8.28624 24.8678 8.07845C24.7815 7.87066 24.6552 7.68187 24.4959 7.52286C24.3367 7.36385 24.1476 7.23773 23.9395 7.1517C23.7315 7.06567 23.5085 7.02142 23.2833 7.02147C23.0581 7.02153 22.8351 7.06588 22.6271 7.15201C22.4191 7.23813 22.2301 7.36434 22.0709 7.52343L16.0103 13.5783L9.94849 7.52343C9.79039 7.35978 9.60126 7.22922 9.39211 7.13936C9.18296 7.04951 8.95799 7.00215 8.73033 7.00007C8.50266 6.99799 8.27686 7.04122 8.0661 7.12723C7.85534 7.21325 7.66384 7.34033 7.50277 7.50106C7.34171 7.66179 7.2143 7.85295 7.12799 8.06339C7.04168 8.27383 6.99819 8.49933 7.00006 8.72674C7.00193 8.95415 7.04912 9.1789 7.13888 9.3879C7.22864 9.59689 7.35918 9.78594 7.52286 9.944L13.5869 16L7.52401 22.056C7.36032 22.2141 7.22979 22.4031 7.14003 22.6121C7.05026 22.8211 7.00307 23.0459 7.0012 23.2733C6.99933 23.5007 7.04282 23.7262 7.12913 23.9366C7.21544 24.147 7.34285 24.3382 7.50392 24.4989C7.66498 24.6597 7.85648 24.7868 8.06724 24.8728C8.278 24.9588 8.5038 25.002 8.73147 24.9999C8.95913 24.9978 9.1841 24.9505 9.39325 24.8606C9.6024 24.7708 9.79154 24.6402 9.94963 24.4766L16.0103 18.4229Z" fill="white"/>
</svg>
